<svg class="nav-logo" xmlns="http://www.w3.org/2000/svg" width="159.809" height="36.929" viewBox="0 0 159.809 36.929"><g transform="translate(0 -0.071)"><path d="M2.426,18.424l-.036-.01A3.349,3.349,0,0,1,.035,14.69l.08-.56a8.746,8.746,0,0,0,2.56,1.253,11.739,11.739,0,0,0,3.81.59,6.309,6.309,0,0,0,3.02-.59,1.825,1.825,0,0,0,1.061-1.659,2.056,2.056,0,0,0-1.166-1.9,12.324,12.324,0,0,0-2.914-1.087A25.205,25.205,0,0,1,3.259,9.8,5.74,5.74,0,0,1,1.01,8.27,3.9,3.9,0,0,1,.073,5.543a4.819,4.819,0,0,1,1.874-3.87Q3.822.125,7.735.125a12.715,12.715,0,0,1,3.039.313,15.545,15.545,0,0,1,2.5.866l-.459,3.022a8.375,8.375,0,0,0-2.206-1.16,8.4,8.4,0,0,0-2.79-.424,5.838,5.838,0,0,0-2.894.607A1.974,1.974,0,0,0,3.863,5.174a1.761,1.761,0,0,0,.5,1.308,3.808,3.808,0,0,0,1.414.83q.917.33,2.832.848a13.705,13.705,0,0,1,4.1,1.769,4.016,4.016,0,0,1,1.728,3.611,4.924,4.924,0,0,1-1.77,3.8q-1.77,1.585-6.016,1.586a16.021,16.021,0,0,1-4.226-.5" transform="translate(0 9.024)" fill="currentColor" fill-rule="evenodd"></path><path d="M45.96,27.562,37.273,10.829h4.258l6.516,13.014,5.876-13.014h4.259L46.58,34.594A4.34,4.34,0,0,1,42.67,37H41.148ZM61.818,10.287h3.19l.475,2.924a13.084,13.084,0,0,1,3.126-2.49,6.547,6.547,0,0,1,3.126-.794,4.455,4.455,0,0,1,.992.108l-.388,3.573a6.911,6.911,0,0,0-1.294-.108,7.74,7.74,0,0,0-3.018.6,5.223,5.223,0,0,0-2.07,1.39v12.49H61.818Zm37.9,17.187-.037-.01a3.376,3.376,0,0,1-2.372-3.755l.08-.564a8.807,8.807,0,0,0,2.58,1.263,11.8,11.8,0,0,0,3.839.594,6.331,6.331,0,0,0,3.04-.594,1.838,1.838,0,0,0,1.07-1.672,2.074,2.074,0,0,0-1.174-1.914,12.388,12.388,0,0,0-2.936-1.1,25.309,25.309,0,0,1-3.251-.948,5.785,5.785,0,0,1-2.266-1.541,3.936,3.936,0,0,1-.943-2.75,4.861,4.861,0,0,1,1.887-3.9q1.889-1.56,5.83-1.56a12.8,12.8,0,0,1,3.063.315,15.578,15.578,0,0,1,2.517.873l-.462,3.047a8.061,8.061,0,0,0-5.033-1.6,5.875,5.875,0,0,0-2.915.612,1.991,1.991,0,0,0-1.07,1.84,1.783,1.783,0,0,0,.5,1.32,3.854,3.854,0,0,0,1.426.835q.922.334,2.853.855a13.87,13.87,0,0,1,4.131,1.783,4.055,4.055,0,0,1,1.741,3.642,4.966,4.966,0,0,1-1.782,3.827q-1.785,1.6-6.062,1.6a16.161,16.161,0,0,1-4.257-.5m-72.444-2.94a6.158,6.158,0,0,1-6.289-6.016,6.295,6.295,0,0,1,12.577,0,6.157,6.157,0,0,1-6.288,6.016m0-15.51a9.791,9.791,0,0,0-10,9.568c0,.039,0,.077,0,.116,0,.02,0,.038,0,.058V37a3.9,3.9,0,0,0,3.984-3.812V26.234a10.252,10.252,0,0,0,6.016,1.925,9.791,9.791,0,0,0,10-9.567,9.792,9.792,0,0,0-10-9.568m96.363,15.361a6.13,6.13,0,0,1-6.288-5.958,6.3,6.3,0,0,1,12.576,0,6.13,6.13,0,0,1-6.288,5.958m0-15.36a9.748,9.748,0,0,0-10,9.475,10.014,10.014,0,0,0,20,0,9.749,9.749,0,0,0-10-9.476" fill="currentColor" fill-rule="evenodd"></path><path d="M23.36,25.28a15.61,15.61,0,0,1-3.085-.2,1.434,1.434,0,0,1-1.1-.9,8.494,8.494,0,0,1-.259-2.565V12.163H22.77V9.6H18.916V3.325l-.165.014a4.031,4.031,0,0,0-3.72,3.99V9.6h-7.3V5.568Q7.733,3,10.408,3c.094,0,.186.008.279.012a3.868,3.868,0,0,1,2.4-2.49A11,11,0,0,0,9.8.071a6.307,6.307,0,0,0-4.423,1.41A5,5,0,0,0,3.848,5.347V9.6H.7L.18,12.164H3.848v15.39H7.733V12.164h7.3V23.63a3.968,3.968,0,0,0,1.36,3.042,6,6,0,0,0,4.164,1.246h3.495l.3-2.639Z" transform="translate(135.455)" fill="currentColor" fill-rule="evenodd"></path><path d="M88.735,9.927a2.35,2.35,0,0,1,.444,1.451,5.1,5.1,0,0,1-.169.878,3.542,3.542,0,0,0-.1.736,2.485,2.485,0,0,0,.63,1.652,5.03,5.03,0,0,1,1.395,3.591,6.45,6.45,0,0,1-5.3,6.121,6.312,6.312,0,0,1-7.38-5.66,11.383,11.383,0,0,1-.1-1.649,12.314,12.314,0,0,1,.417-2.987c.157-1.337-.732-1.722-1.644-1.794l0-.012a9.224,9.224,0,0,0-2.257,7.717,9.647,9.647,0,0,0,8.305,7.89c6.218.9,11.568-3.669,11.568-9.433a8.923,8.923,0,0,0-5.81-8.5" fill="currentColor" fill-rule="evenodd"></path><path d="M84.392,9.8,78.263,7.317a1.461,1.461,0,0,0-1.878,1.725l.689,3.3a2.8,2.8,0,0,1,1.256.337,1.856,1.856,0,0,1,.908,1.461,6.522,6.522,0,0,1-.07,1.021c-.018.192-.06.63-.057.725a4.147,4.147,0,0,0,.092,1.006,3.712,3.712,0,0,0,.435,1.158l5.233-5.2a1.871,1.871,0,0,0-.48-3.05" transform="translate(1 -1)" fill="#f43f08" fill-rule="evenodd"></path></g></svg>